<mxfile host="app.diagrams.net" modified="2020-11-23T21:43:30.655Z" agent="5.0 (Windows)" etag="foiLQPW-MNqGx4x9YeEi" version="13.6.5" type="github">
  <diagram name="Page-1" id="e7e014a7-5840-1c2e-5031-d8a46d1fe8dd">
    <mxGraphModel dx="1038" dy="585" grid="1" gridSize="10" guides="1" tooltips="1" connect="1" arrows="1" fold="1" page="1" pageScale="1" pageWidth="1169" pageHeight="826" background="#ffffff" math="0" shadow="0">
      <root>
        <mxCell id="0" />
        <mxCell id="1" parent="0" />
        <mxCell id="glMjbdicpxm9SNAEtISa-41" value="" style="whiteSpace=wrap;html=1;aspect=fixed;" vertex="1" parent="1">
          <mxGeometry x="235" y="230" width="550" height="550" as="geometry" />
        </mxCell>
        <mxCell id="glMjbdicpxm9SNAEtISa-42" value="&lt;font face=&quot;Helvetica&quot;&gt;&lt;i&gt;&lt;font style=&quot;font-size: 16px&quot;&gt;&lt;b&gt;Library Management System&lt;/b&gt;&lt;/font&gt;&lt;/i&gt;&lt;/font&gt;" style="text;html=1;strokeColor=none;fillColor=none;align=center;verticalAlign=middle;whiteSpace=wrap;rounded=0;" vertex="1" parent="1">
          <mxGeometry x="382.5" y="240" width="255" height="50" as="geometry" />
        </mxCell>
        <mxCell id="glMjbdicpxm9SNAEtISa-65" style="edgeStyle=orthogonalEdgeStyle;rounded=0;orthogonalLoop=1;jettySize=auto;html=1;entryX=1;entryY=0.5;entryDx=0;entryDy=0;" edge="1" parent="1" source="glMjbdicpxm9SNAEtISa-45" target="glMjbdicpxm9SNAEtISa-51">
          <mxGeometry relative="1" as="geometry" />
        </mxCell>
        <mxCell id="glMjbdicpxm9SNAEtISa-66" style="edgeStyle=orthogonalEdgeStyle;rounded=0;orthogonalLoop=1;jettySize=auto;html=1;entryX=1;entryY=0.5;entryDx=0;entryDy=0;" edge="1" parent="1" source="glMjbdicpxm9SNAEtISa-45" target="glMjbdicpxm9SNAEtISa-52">
          <mxGeometry relative="1" as="geometry" />
        </mxCell>
        <mxCell id="glMjbdicpxm9SNAEtISa-67" style="edgeStyle=orthogonalEdgeStyle;rounded=0;orthogonalLoop=1;jettySize=auto;html=1;entryX=1;entryY=0.5;entryDx=0;entryDy=0;" edge="1" parent="1" source="glMjbdicpxm9SNAEtISa-45" target="glMjbdicpxm9SNAEtISa-53">
          <mxGeometry relative="1" as="geometry" />
        </mxCell>
        <mxCell id="glMjbdicpxm9SNAEtISa-74" style="edgeStyle=orthogonalEdgeStyle;rounded=0;orthogonalLoop=1;jettySize=auto;html=1;entryX=1;entryY=0.5;entryDx=0;entryDy=0;" edge="1" parent="1" source="glMjbdicpxm9SNAEtISa-45" target="glMjbdicpxm9SNAEtISa-50">
          <mxGeometry relative="1" as="geometry" />
        </mxCell>
        <mxCell id="glMjbdicpxm9SNAEtISa-75" style="edgeStyle=orthogonalEdgeStyle;rounded=0;orthogonalLoop=1;jettySize=auto;html=1;entryX=1;entryY=0.5;entryDx=0;entryDy=0;" edge="1" parent="1" source="glMjbdicpxm9SNAEtISa-45" target="glMjbdicpxm9SNAEtISa-48">
          <mxGeometry relative="1" as="geometry" />
        </mxCell>
        <mxCell id="glMjbdicpxm9SNAEtISa-45" value="&lt;div&gt;Librarian&lt;/div&gt;&lt;div&gt;&lt;br&gt;&lt;/div&gt;" style="shape=umlActor;verticalLabelPosition=bottom;verticalAlign=top;html=1;" vertex="1" parent="1">
          <mxGeometry x="660" y="363" width="30" height="60" as="geometry" />
        </mxCell>
        <mxCell id="glMjbdicpxm9SNAEtISa-60" style="edgeStyle=orthogonalEdgeStyle;rounded=0;orthogonalLoop=1;jettySize=auto;html=1;entryX=0;entryY=0.5;entryDx=0;entryDy=0;" edge="1" parent="1" source="glMjbdicpxm9SNAEtISa-47" target="glMjbdicpxm9SNAEtISa-48">
          <mxGeometry relative="1" as="geometry" />
        </mxCell>
        <mxCell id="glMjbdicpxm9SNAEtISa-62" style="edgeStyle=orthogonalEdgeStyle;rounded=0;orthogonalLoop=1;jettySize=auto;html=1;entryX=0;entryY=0.5;entryDx=0;entryDy=0;" edge="1" parent="1" source="glMjbdicpxm9SNAEtISa-47" target="glMjbdicpxm9SNAEtISa-54">
          <mxGeometry relative="1" as="geometry" />
        </mxCell>
        <mxCell id="glMjbdicpxm9SNAEtISa-71" style="edgeStyle=orthogonalEdgeStyle;rounded=0;orthogonalLoop=1;jettySize=auto;html=1;entryX=0;entryY=0.5;entryDx=0;entryDy=0;" edge="1" parent="1" source="glMjbdicpxm9SNAEtISa-47" target="glMjbdicpxm9SNAEtISa-50">
          <mxGeometry relative="1" as="geometry" />
        </mxCell>
        <mxCell id="glMjbdicpxm9SNAEtISa-47" value="&lt;div&gt;Member&lt;/div&gt;" style="shape=umlActor;verticalLabelPosition=bottom;verticalAlign=top;html=1;" vertex="1" parent="1">
          <mxGeometry x="290" y="490" width="30" height="60" as="geometry" />
        </mxCell>
        <mxCell id="glMjbdicpxm9SNAEtISa-48" value="&lt;div&gt;Issue book&lt;/div&gt;" style="ellipse;whiteSpace=wrap;html=1;" vertex="1" parent="1">
          <mxGeometry x="471.26" y="460" width="77.5" height="40" as="geometry" />
        </mxCell>
        <mxCell id="glMjbdicpxm9SNAEtISa-50" value="&lt;div&gt;Return book&lt;/div&gt;" style="ellipse;whiteSpace=wrap;html=1;" vertex="1" parent="1">
          <mxGeometry x="471.26" y="500" width="77.5" height="40" as="geometry" />
        </mxCell>
        <mxCell id="glMjbdicpxm9SNAEtISa-51" value="&lt;div&gt;Add book&lt;/div&gt;" style="ellipse;whiteSpace=wrap;html=1;" vertex="1" parent="1">
          <mxGeometry x="471.25" y="293" width="77.5" height="40" as="geometry" />
        </mxCell>
        <mxCell id="glMjbdicpxm9SNAEtISa-52" value="&lt;div&gt;Remove book&lt;/div&gt;" style="ellipse;whiteSpace=wrap;html=1;" vertex="1" parent="1">
          <mxGeometry x="471.25" y="333" width="77.5" height="40" as="geometry" />
        </mxCell>
        <mxCell id="glMjbdicpxm9SNAEtISa-53" value="&lt;div&gt;Remove book from catalog&lt;/div&gt;" style="ellipse;whiteSpace=wrap;html=1;" vertex="1" parent="1">
          <mxGeometry x="465.63" y="373" width="88.75" height="40" as="geometry" />
        </mxCell>
        <mxCell id="glMjbdicpxm9SNAEtISa-64" style="edgeStyle=orthogonalEdgeStyle;rounded=0;orthogonalLoop=1;jettySize=auto;html=1;entryX=1;entryY=0.5;entryDx=0;entryDy=0;" edge="1" parent="1" source="glMjbdicpxm9SNAEtISa-57" target="glMjbdicpxm9SNAEtISa-54">
          <mxGeometry relative="1" as="geometry" />
        </mxCell>
        <mxCell id="glMjbdicpxm9SNAEtISa-57" value="&lt;div&gt;System&lt;/div&gt;" style="shape=umlActor;verticalLabelPosition=bottom;verticalAlign=top;html=1;" vertex="1" parent="1">
          <mxGeometry x="660" y="580" width="30" height="60" as="geometry" />
        </mxCell>
        <mxCell id="glMjbdicpxm9SNAEtISa-54" value="&lt;div&gt;Search book&lt;/div&gt;" style="ellipse;whiteSpace=wrap;html=1;" vertex="1" parent="1">
          <mxGeometry x="471.26" y="590" width="77.5" height="40" as="geometry" />
        </mxCell>
      </root>
    </mxGraphModel>
  </diagram>
</mxfile>
